<svg width="372" height="320" viewBox="0 0 372 320" fill="none" xmlns="http://www.w3.org/2000/svg">
<path d="M47.8859 217.398C48.0745 217.54 48.6167 217.611 49.5126 217.611C50.4085 217.611 51.0922 217.304 51.5637 216.691C52.0352 216.078 52.271 214.994 52.271 213.438V212.094C52.271 210.349 52.0588 209.1 51.6344 208.345C51.2572 207.591 50.5971 207.214 49.6541 207.214C48.7582 207.214 48.1452 207.308 47.8152 207.497C47.8623 207.732 47.8859 208.133 47.8859 208.699V217.398ZM47.8859 190.734C48.0745 190.876 48.6167 190.947 49.5126 190.947C50.4085 190.947 51.0922 190.593 51.5637 189.886C52.0352 189.178 52.271 188.023 52.271 186.42V185.996C52.271 184.298 52.0588 183.096 51.6344 182.389C51.2572 181.634 50.5971 181.257 49.6541 181.257C48.7582 181.257 48.1452 181.351 47.8152 181.54C47.8623 181.776 47.8859 182.177 47.8859 182.742V190.734ZM9.48127 163.505C9.48127 162.42 10.3771 161.194 12.1689 159.827C15.941 156.951 22.5893 154.711 32.1138 153.108C37.0647 152.306 42.5107 151.905 48.4517 151.905C62.5971 151.905 73.3004 154.64 80.5617 160.11C86.9271 164.919 90.1098 171.237 90.1098 179.065C90.1098 181.894 89.6147 184.676 88.6245 187.41C87.6343 190.098 86.2198 192.125 84.3809 193.493C81.8819 192.22 79.4772 191.583 77.1668 191.583C76.0823 191.583 75.2572 191.795 74.6913 192.22C74.1255 192.644 73.8426 193.422 73.8426 194.554C80.7738 194.837 86.1727 197.336 90.0391 202.051C93.4811 206.341 95.2021 211.67 95.2021 218.035C95.2021 227.89 91.0764 235.057 82.8249 239.536C75.0921 243.732 63.4458 245.831 47.8859 245.831C36.994 245.831 29.0019 245.501 23.9095 244.84C18.8172 244.133 15.1394 242.506 12.8762 239.96C10.6129 237.414 9.48127 233.548 9.48127 228.361V163.505ZM192.166 231.968V161.1C192.166 158.648 194.122 156.621 198.036 155.017C201.997 153.367 206.641 152.542 211.969 152.542C214.987 152.542 217.816 152.919 220.456 153.674C223.144 154.381 225.195 155.3 226.61 156.432C228.543 158.884 230.311 161.383 231.914 163.929C233.517 166.475 237.124 172.416 242.735 181.752C243.254 181.752 243.725 181.587 244.15 181.257C244.574 180.927 244.786 180.432 244.786 179.772C244.786 179.065 244.197 177.721 243.018 175.74L235.38 162.585V158.695C237.784 156.715 240.708 155.182 244.15 154.098C247.592 153.014 251.152 152.471 254.83 152.471C260.818 152.471 265.651 153.556 269.329 155.725C273.619 158.318 275.765 162.373 275.765 167.89V234.868C275.765 238.923 273.831 241.87 269.965 243.709C266.665 245.359 262.256 246.184 256.739 246.184C253.674 246.184 250.68 245.854 247.757 245.194C244.881 244.534 242.617 243.685 240.967 242.648C237.619 238.357 234.295 233.548 230.995 228.22L223.781 216.196C222.413 216.385 221.729 217.116 221.729 218.389C221.729 219.19 222.413 220.723 223.781 222.986L232.621 237.273V241.021C227.152 244.558 220.975 246.326 214.091 246.326C207.254 246.326 201.879 245.076 197.965 242.577C194.099 240.078 192.166 236.542 192.166 231.968ZM323.751 167.253V170.436C321.865 174.349 320.427 177.414 319.437 179.63C318.447 181.799 317.952 183.285 317.952 184.086C317.952 185.454 318.73 186.137 320.286 186.137L334.219 155.583C337.472 153.461 341.905 152.401 347.516 152.401C353.174 152.401 358.03 153.957 362.085 157.069C366.518 160.558 368.734 165.32 368.734 171.355C368.734 176.401 367.013 181.375 363.571 186.279C360.129 191.135 355.626 195.355 350.062 198.939C347.468 197.477 345.134 196.746 343.06 196.746C340.985 196.746 339.948 197.76 339.948 199.787C342.117 200.212 344.074 200.825 345.818 201.626C347.61 202.381 349.708 203.866 352.113 206.082L370.926 223.41C369.559 238.687 361.92 246.326 348.011 246.326C342.871 246.326 338.463 245.005 334.785 242.365C330.447 239.3 327.052 234.632 324.6 228.361L318.023 211.952H317.669C316.113 211.952 315.335 212.613 315.335 213.933C315.335 214.782 315.995 216.833 317.315 220.086C318.635 223.622 320.616 228.338 323.256 234.231V239.677C318.305 244.11 311.115 246.326 301.685 246.326C296.592 246.326 292.231 245.17 288.6 242.86C284.498 240.361 282.447 236.801 282.447 232.18V159.19C287.304 154.758 294.683 152.542 304.584 152.542C309.724 152.542 314.085 153.626 317.669 155.795C321.724 158.389 323.751 162.208 323.751 167.253Z" fill="#FFFCEC"/>
<path d="M139.299 194.766C139.487 194.907 140.03 194.978 140.926 194.978C141.821 194.978 142.505 194.624 142.977 193.917C143.448 193.21 143.684 192.055 143.684 190.452V187.905C143.684 186.208 143.472 185.006 143.047 184.298C142.67 183.544 142.01 183.167 141.067 183.167C140.171 183.167 139.558 183.261 139.228 183.45C139.275 183.685 139.299 184.086 139.299 184.652V194.766ZM175.794 210.892L188.03 223.41C187.181 230.766 184.847 236.424 181.028 240.385C177.256 244.345 172.022 246.326 165.326 246.326C160.281 246.326 155.896 245.123 152.171 242.719C147.409 239.701 143.849 234.892 141.491 228.29L138.945 221.359C136.965 221.312 134.466 221.053 131.448 220.581C131.071 220.958 130.882 221.477 130.882 222.137C130.882 223.41 132.792 224.165 136.611 224.4L140.643 234.585V240.597C135.22 244.416 128.265 246.326 119.778 246.326C113.696 246.326 108.839 245.076 105.209 242.577C101.578 240.078 99.7626 236.448 99.7626 231.685V164.495C99.7626 162.42 101.672 160.416 105.491 158.483C109.311 156.503 114.309 154.923 120.486 153.744C126.662 152.518 132.839 151.905 139.016 151.905C153.161 151.905 164.218 154.805 172.187 160.605C180.58 166.687 184.776 175.245 184.776 186.279C184.776 192.597 182.984 198.019 179.401 202.546C175.865 207.025 171.385 210.137 165.963 211.882C165.963 213.391 166.859 214.145 168.65 214.145C170.489 214.145 172.87 213.061 175.794 210.892Z" fill="#D7511B"/>
<path d="M8.56539 296.654H16.4186V298.483H10.7789V302.525H15.7257V304.353H10.7789V310.128H8.56539V296.654ZM34.3341 300.504H36.5476V310.128H34.3341V300.504ZM34.2379 297.732C34.225 297.552 34.2635 297.373 34.3534 297.193C34.456 297.013 34.5972 296.866 34.7768 296.75C34.9693 296.635 35.2003 296.577 35.4697 296.577C35.8675 296.577 36.1627 296.699 36.3552 296.943C36.5605 297.174 36.6631 297.437 36.6631 297.732C36.6631 298.027 36.5605 298.303 36.3552 298.56C36.1498 298.803 35.8483 298.925 35.4505 298.925C35.1939 298.925 34.9693 298.868 34.7768 298.752C34.5972 298.624 34.4624 298.47 34.3726 298.29C34.2828 298.111 34.2379 297.924 34.2379 297.732ZM59.5773 310.089C59.1538 310.256 58.7881 310.365 58.4801 310.417C58.185 310.481 57.8898 310.513 57.5947 310.513C56.6708 310.513 56.0099 310.275 55.6122 309.801C55.2144 309.313 55.0155 308.575 55.0155 307.587V295.692H57.229V307.087C57.229 307.767 57.2867 308.222 57.4022 308.453C57.5177 308.671 57.723 308.78 58.0182 308.78C58.1978 308.78 58.3839 308.755 58.5764 308.703C58.7817 308.652 58.9742 308.588 59.1538 308.511L59.5773 310.089ZM76.6851 300.504H78.8986V310.128H76.6851V300.504ZM82.9985 304.604C82.9985 303.59 82.8766 302.871 82.6328 302.448C82.4018 302.012 81.9976 301.793 81.4201 301.793C80.5604 301.793 79.9252 302.178 79.5146 302.948C79.1039 303.705 78.8986 304.706 78.8986 305.951L78.7254 304.815L78.6869 303.449C78.8409 302.756 79.0847 302.166 79.4183 301.678C79.752 301.177 80.1626 300.792 80.6502 300.523C81.1378 300.254 81.6896 300.119 82.3055 300.119C83.2423 300.119 83.9609 300.459 84.4613 301.139C84.9618 301.806 85.212 302.833 85.212 304.219V310.128H82.9985V304.604ZM89.2926 304.604C89.2926 303.59 89.1707 302.871 88.9269 302.448C88.6959 302.012 88.2917 301.793 87.7143 301.793C86.8673 301.793 86.2386 302.178 85.8279 302.948C85.4173 303.705 85.212 304.706 85.212 305.951L85.0195 304.815L84.981 303.449C85.135 302.756 85.3788 302.166 85.7125 301.678C86.0461 301.177 86.4567 300.792 86.9443 300.523C87.432 300.254 87.9837 300.119 88.5997 300.119C89.5364 300.119 90.255 300.459 90.7555 301.139C91.2559 301.806 91.5061 302.833 91.5061 304.219V310.128H89.2926V304.604ZM129.875 296.654H134.456C135.598 296.654 136.554 296.847 137.324 297.232C138.107 297.604 138.691 298.123 139.075 298.791C139.473 299.458 139.672 300.228 139.672 301.1C139.672 301.999 139.467 302.788 139.056 303.468C138.658 304.148 138.068 304.687 137.285 305.085C136.503 305.47 135.54 305.662 134.398 305.662H132.088V310.128H129.875V296.654ZM134.206 303.834C134.911 303.834 135.502 303.744 135.977 303.564C136.464 303.372 136.83 303.07 137.074 302.66C137.33 302.249 137.459 301.723 137.459 301.081C137.459 300.452 137.337 299.946 137.093 299.561C136.849 299.176 136.49 298.9 136.015 298.733C135.54 298.566 134.95 298.483 134.244 298.483H132.088V303.834H134.206ZM157.61 300.504H159.824V302.621C160.016 302.121 160.26 301.684 160.555 301.312C160.863 300.94 161.248 300.651 161.71 300.446C162.185 300.241 162.743 300.132 163.384 300.119V301.793C162.704 301.793 162.133 301.909 161.671 302.14C161.222 302.371 160.863 302.685 160.594 303.083C160.324 303.481 160.125 303.93 159.997 304.43C159.881 304.918 159.824 305.425 159.824 305.951V310.128H157.61V300.504ZM185.35 310.513C184.349 310.513 183.495 310.307 182.79 309.897C182.097 309.486 181.564 308.89 181.192 308.107C180.82 307.311 180.634 306.349 180.634 305.22C180.634 304.154 180.82 303.243 181.192 302.486C181.564 301.716 182.103 301.133 182.809 300.735C183.515 300.324 184.362 300.119 185.35 300.119C186.954 300.119 188.166 300.568 188.988 301.466C189.822 302.364 190.239 303.616 190.239 305.22C190.239 306.913 189.822 308.222 188.988 309.146C188.166 310.057 186.954 310.513 185.35 310.513ZM185.369 308.819C186.267 308.819 186.934 308.53 187.371 307.953C187.807 307.362 188.025 306.464 188.025 305.258C188.025 304.103 187.807 303.237 187.371 302.66C186.934 302.082 186.28 301.793 185.407 301.793C184.535 301.793 183.887 302.076 183.463 302.64C183.053 303.205 182.847 304.071 182.847 305.239C182.847 306.432 183.053 307.33 183.463 307.934C183.887 308.524 184.522 308.819 185.369 308.819ZM211.934 310.513C211.035 310.513 210.259 310.282 209.605 309.82C208.963 309.345 208.469 308.71 208.123 307.914C207.776 307.119 207.603 306.22 207.603 305.22C207.603 304.219 207.757 303.34 208.065 302.583C208.386 301.813 208.86 301.21 209.489 300.773C210.118 300.337 210.888 300.119 211.799 300.119C212.954 300.119 213.839 300.561 214.455 301.447C215.071 302.332 215.379 303.59 215.379 305.22C215.379 306.913 215.078 308.222 214.474 309.146C213.884 310.057 213.037 310.513 211.934 310.513ZM212.319 308.838C212.819 308.838 213.262 308.684 213.647 308.376C214.045 308.055 214.346 307.619 214.551 307.067C214.77 306.516 214.879 305.887 214.879 305.181C214.879 304.514 214.77 303.93 214.551 303.429C214.333 302.916 214.025 302.518 213.628 302.236C213.243 301.941 212.793 301.793 212.28 301.793C211.485 301.793 210.875 302.095 210.452 302.698C210.028 303.288 209.816 304.122 209.816 305.2C209.816 306.317 210.035 307.202 210.471 307.857C210.92 308.511 211.536 308.838 212.319 308.838ZM214.898 310.128V295.692H217.111V310.128H214.898ZM237.508 300.504V306.297C237.508 307.196 237.694 307.844 238.066 308.241C238.451 308.626 238.978 308.819 239.645 308.819C240.312 308.819 240.825 308.626 241.185 308.241C241.544 307.844 241.724 307.196 241.724 306.297V300.504H243.937V306.567C243.937 307.337 243.764 308.017 243.417 308.607C243.084 309.197 242.59 309.666 241.935 310.012C241.294 310.346 240.524 310.513 239.626 310.513C238.727 310.513 237.951 310.352 237.297 310.032C236.655 309.698 236.161 309.236 235.814 308.646C235.468 308.043 235.295 307.35 235.295 306.567V300.504H237.508ZM270.27 308.78C269.834 309.294 269.276 309.711 268.595 310.032C267.915 310.352 267.126 310.513 266.228 310.513C264.816 310.513 263.719 310.057 262.937 309.146C262.154 308.222 261.762 306.913 261.762 305.22C261.762 303.616 262.147 302.364 262.917 301.466C263.7 300.568 264.797 300.119 266.209 300.119C267.068 300.119 267.832 300.273 268.499 300.581C269.166 300.889 269.718 301.312 270.155 301.851L268.923 303.083C268.576 302.672 268.191 302.358 267.768 302.14C267.344 301.909 266.882 301.793 266.382 301.793C265.548 301.793 264.938 302.076 264.553 302.64C264.168 303.205 263.976 304.071 263.976 305.239C263.976 306.432 264.168 307.33 264.553 307.934C264.938 308.524 265.529 308.819 266.324 308.819C266.837 308.819 267.332 308.71 267.806 308.492C268.294 308.274 268.698 307.959 269.019 307.549L270.27 308.78ZM293.404 309.993C292.929 310.198 292.525 310.333 292.191 310.397C291.858 310.474 291.531 310.513 291.21 310.513C290.286 310.513 289.619 310.275 289.208 309.801C288.81 309.313 288.611 308.575 288.611 307.587V298.194H290.825V307.087C290.825 307.767 290.883 308.222 290.998 308.453C291.126 308.671 291.338 308.78 291.633 308.78C291.839 308.78 292.07 308.748 292.326 308.684C292.583 308.62 292.807 308.537 293 308.434L293.404 309.993ZM286.706 300.504H293.327V302.14H286.706V300.504ZM311.392 300.504H313.606V310.128H311.392V300.504ZM311.296 297.732C311.283 297.552 311.321 297.373 311.411 297.193C311.514 297.013 311.655 296.866 311.835 296.75C312.027 296.635 312.258 296.577 312.528 296.577C312.925 296.577 313.221 296.699 313.413 296.943C313.618 297.174 313.721 297.437 313.721 297.732C313.721 298.027 313.618 298.303 313.413 298.56C313.208 298.803 312.906 298.925 312.508 298.925C312.252 298.925 312.027 298.868 311.835 298.752C311.655 298.624 311.52 298.47 311.431 298.29C311.341 298.111 311.296 297.924 311.296 297.732ZM336.385 310.513C335.384 310.513 334.531 310.307 333.825 309.897C333.132 309.486 332.599 308.89 332.227 308.107C331.855 307.311 331.669 306.349 331.669 305.22C331.669 304.154 331.855 303.243 332.227 302.486C332.599 301.716 333.138 301.133 333.844 300.735C334.55 300.324 335.397 300.119 336.385 300.119C337.989 300.119 339.202 300.568 340.023 301.466C340.857 302.364 341.274 303.616 341.274 305.22C341.274 306.913 340.857 308.222 340.023 309.146C339.202 310.057 337.989 310.513 336.385 310.513ZM336.404 308.819C337.302 308.819 337.97 308.53 338.406 307.953C338.842 307.362 339.06 306.464 339.06 305.258C339.06 304.103 338.842 303.237 338.406 302.66C337.97 302.082 337.315 301.793 336.443 301.793C335.57 301.793 334.922 302.076 334.499 302.64C334.088 303.205 333.883 304.071 333.883 305.239C333.883 306.432 334.088 307.33 334.499 307.934C334.922 308.524 335.557 308.819 336.404 308.819ZM365.991 304.604C365.991 303.59 365.856 302.871 365.587 302.448C365.317 302.012 364.862 301.793 364.22 301.793C363.296 301.793 362.603 302.178 362.141 302.948C361.679 303.705 361.448 304.706 361.448 305.951L361.217 304.815L361.16 303.449C361.314 302.756 361.57 302.166 361.93 301.678C362.289 301.177 362.725 300.792 363.238 300.523C363.752 300.254 364.316 300.119 364.932 300.119C365.997 300.119 366.806 300.459 367.358 301.139C367.922 301.806 368.205 302.833 368.205 304.219V310.128H365.991V304.604ZM359.235 300.504H361.448V310.128H359.235V300.504Z" fill="#FFFCEC"/>
<path d="M20.4848 50.0586C16.6737 50.0586 13.3213 49.247 10.4277 47.6238C7.53404 46.0005 5.27559 43.7244 3.65233 40.7955C2.02907 37.8313 1.21744 34.3907 1.21744 30.4737C1.21744 26.592 2.01143 23.1867 3.5994 20.2577C5.22266 17.3288 7.4811 15.0351 10.3747 13.3765C13.2684 11.718 16.656 10.8887 20.5377 10.8887C24.4195 10.8887 27.8071 11.718 30.7008 13.3765C33.5944 15.0351 35.8352 17.3465 37.4232 20.3107C39.0111 23.2396 39.8051 26.6273 39.8051 30.4737C39.8051 34.426 38.9935 37.8842 37.3702 40.8484C35.747 43.7773 33.4885 46.0534 30.5949 47.6767C27.7013 49.2647 24.3312 50.0586 20.4848 50.0586ZM20.5907 42.4364C22.5315 42.4364 24.1724 41.9953 25.5134 41.1131C26.8543 40.1956 27.8601 38.8546 28.5305 37.0902C29.2363 35.3258 29.5892 33.1909 29.5892 30.6854C29.5892 26.839 28.7775 23.8571 27.1543 21.7398C25.5663 19.5873 23.3079 18.511 20.379 18.511C17.4853 18.511 15.2622 19.5343 13.7095 21.5811C12.1921 23.6278 11.4334 26.539 11.4334 30.3149C11.4334 34.0907 12.2274 37.0549 13.8153 39.2075C15.4386 41.3601 17.697 42.4364 20.5907 42.4364ZM53.1118 11.9474H62.6396L75.661 32.538V11.9474H85.7181V49H76.1903L63.169 28.4093V49H53.1118V11.9474ZM11.5392 77.3579H0.529323V69.9474H32.6063V77.3579H21.5964V107H11.5392V77.3579ZM45.203 69.9474H55.2601V83.7098H66.9052V69.9474H76.9624V107H66.9052V91.1203H55.2601V107H45.203V69.9474ZM92.0915 69.9474H114.429V77.3579H102.149V83.8686H113.106V91.2791H102.149V99.5895H115.223V107H92.0915V69.9474Z" fill="#FFFCEC"/>
<line x1="4.81201" y1="275.489" x2="368.12" y2="275.489" stroke="white" stroke-width="2.40602"/>
<line x1="4.81201" y1="126.316" x2="368.12" y2="126.316" stroke="white" stroke-width="2.40602"/>
<path d="M267.274 109.91H169.525C167.89 109.91 166.735 108.308 167.252 106.756C167.333 106.512 167.454 106.283 167.608 106.077L168.795 104.494C169.019 104.195 169.31 103.953 169.644 103.786L170.31 103.453L171.873 102.411C172.004 102.323 172.127 102.222 172.239 102.11L172.73 101.62C173.065 101.284 173.294 100.856 173.388 100.391L173.725 98.7052C173.795 98.3529 173.944 98.0209 174.159 97.7335L175.516 95.9247C175.566 95.857 175.603 95.7799 175.624 95.6978L175.785 95.0538C175.896 94.6101 175.352 94.3021 175.028 94.6255C175.013 94.6406 174.997 94.6546 174.98 94.6674L170.31 98.1701L166.539 100.863C166.315 101.023 166.066 101.144 165.802 101.219L162.805 102.075C162.341 102.208 161.927 102.477 161.618 102.848L159.157 105.801L155.753 109.205C155.302 109.656 154.69 109.91 154.052 109.91H126.486C126.004 109.91 125.564 109.637 125.348 109.207C125.198 108.905 125.173 108.556 125.279 108.236L125.406 107.855C125.594 107.291 125.998 106.825 126.53 106.56L127.54 106.055C127.874 105.888 128.164 105.645 128.388 105.346L131.57 101.105L134.504 97.5831L140.374 91.7133L144.483 86.4306L145.731 84.766C146.063 84.324 146.537 84.0095 147.073 83.8755L147.814 83.69C148.316 83.5646 148.846 83.6228 149.308 83.854C149.609 84.0044 149.941 84.0827 150.277 84.0827H151.915C152.047 84.0827 152.179 84.0717 152.31 84.0499L155.439 83.5284C155.57 83.5066 155.702 83.4957 155.835 83.4957H156.4C157.038 83.4957 157.65 83.2422 158.101 82.791L158.449 82.4426C158.53 82.3621 158.605 82.276 158.673 82.1849L160.229 80.1106C160.297 80.0195 160.372 79.9334 160.452 79.8529L163.853 76.452L166.788 72.9301L172.071 66.4734L174.419 64.1255L175.708 62.8358C176.017 62.5275 176.403 62.3087 176.826 62.203L177.944 61.9235C178.327 61.8277 178.728 61.8277 179.111 61.9235L180.619 62.3005C180.789 62.3431 180.955 62.4042 181.112 62.4827L182.049 62.9516L183.223 63.5385L186.547 65.7543C186.679 65.8422 186.802 65.9429 186.914 66.0549L187.919 67.0604C188.256 67.3972 188.789 67.4351 189.17 67.1493L190.477 66.1692C190.726 65.9825 190.936 65.7492 191.096 65.4823L192.462 63.2056C192.564 63.0369 192.685 62.8812 192.824 62.7421L199.072 56.4949L203.488 51.5264C203.673 51.3184 203.82 51.0799 203.924 50.8215L204.793 48.647C204.891 48.4021 205.029 48.175 205.201 47.9748L208.27 44.3933C208.398 44.2439 208.508 44.0794 208.596 43.9035L210.05 40.9958C210.165 40.7645 210.317 40.5533 210.5 40.3704L211.049 39.8218C211.279 39.5914 211.46 39.3166 211.581 39.014L212.232 37.387C212.451 36.8399 212.863 36.3921 213.39 36.1286L214.92 35.3638L217.425 34.3619C217.709 34.2482 218.012 34.1898 218.318 34.1898H220.79H221.554C222.192 34.1898 222.804 33.9363 223.255 33.4851L224.758 31.9827C224.851 31.889 224.937 31.7877 225.014 31.6799L227.833 27.7331L232.363 22.6376C232.473 22.5131 232.571 22.3774 232.653 22.2328L234.516 18.974C234.751 18.5616 235.104 18.2281 235.529 18.0157L237.225 17.1675L238.873 16.3435C239.328 16.1161 239.843 16.0386 240.345 16.1222L242.516 16.4841C242.896 16.5475 243.256 16.7013 243.564 16.9326L247.566 19.9338C247.715 20.0458 247.851 20.1749 247.97 20.3183L250.57 23.4376C250.673 23.5617 250.789 23.6751 250.915 23.7761L253.422 25.7813C253.58 25.908 253.722 26.0543 253.844 26.2165L255.421 28.3201L260.476 34.4981C260.627 34.6829 260.805 34.8441 261.003 34.9765L262.465 35.9507L265.17 38.115C265.323 38.2369 265.46 38.3771 265.578 38.5322L273.03 48.2772L275.378 51.2121L276.111 51.9452C276.401 52.2343 276.759 52.445 277.152 52.5573L280.661 53.56L282.605 54.0459C282.872 54.1128 283.126 54.2251 283.356 54.3781L284.48 55.1273C284.672 55.2557 284.845 55.4112 284.993 55.589L287.576 58.6884C287.662 58.7911 287.739 58.9008 287.806 59.0163L291.601 65.5211C291.741 65.7628 291.924 65.9781 292.138 66.1572L295.193 68.7022C295.288 68.7815 295.389 68.8533 295.495 68.917L297.699 70.2394C298.073 70.4637 298.501 70.5822 298.937 70.5822H299.303C299.778 70.5822 300.242 70.4416 300.637 70.1782L301.261 69.7627C301.609 69.5305 301.891 69.2113 302.078 68.8368L302.168 68.6575C302.307 68.3781 302.5 68.1285 302.735 67.9228L306.835 64.3358C306.994 64.1962 307.135 64.0362 307.252 63.8598L307.733 63.1386C308.065 62.6405 308.571 62.2842 309.151 62.139L310.402 61.8264C310.531 61.794 310.664 61.7776 310.798 61.7776C311.052 61.7776 311.302 61.8367 311.529 61.9502L312.008 62.19C312.24 62.3056 312.451 62.4578 312.634 62.6407L314.706 64.7125L318.227 68.8213L323.304 75.59C323.441 75.7724 323.603 75.9345 323.785 76.0712L325.389 77.2739C325.697 77.5052 326.057 77.659 326.437 77.7224L329.184 78.1802C329.314 78.202 329.447 78.2129 329.579 78.2129H330.237C330.82 78.2129 331.383 78.4244 331.821 78.8082L335.837 82.3217L339.946 85.8436L346.402 91.7133L355.794 99.931L365.772 108.149L367.181 109.205C367.482 109.431 367.322 109.91 366.946 109.91H362.361C361.906 109.91 361.459 109.78 361.074 109.536L344.054 98.757L341.843 97.0987C341.752 97.0304 341.666 96.9557 341.586 96.8752L336.564 91.8541C336.471 91.7604 336.369 91.6746 336.262 91.5976L332.567 88.9583C332.399 88.8389 332.248 88.6986 332.117 88.5407L329.952 85.9428C329.583 85.5001 329.067 85.2045 328.499 85.1098L326.055 84.7024C325.924 84.6806 325.792 84.6696 325.659 84.6696H323.065C322.59 84.6696 322.125 84.529 321.73 84.2655L320.948 83.7442C320.702 83.5799 320.488 83.3716 320.317 83.1297L313.642 73.6738C313.569 73.5702 313.478 73.4811 313.372 73.4107C312.688 72.9544 311.771 73.4451 311.771 74.2678V76.6002C311.771 76.89 311.715 77.1772 311.608 77.4463L310.735 79.6279C310.644 79.8564 310.597 80.1003 310.597 80.3464C310.597 80.8595 310.801 81.3516 311.163 81.7144L314.177 84.7279C314.515 85.0664 314.706 85.5256 314.706 86.0044C314.706 86.2847 314.64 86.5611 314.515 86.8117L313.786 88.2704C313.619 88.6045 313.532 88.9729 313.532 89.3464V89.5428C313.532 90.1809 313.785 90.7929 314.236 91.2441L314.706 91.7133L318.721 96.8766C318.783 96.9561 318.837 97.0415 318.882 97.1315L319.306 97.9786C319.619 98.6059 319.163 99.344 318.462 99.344C318.308 99.344 318.156 99.3064 318.02 99.2344L308.249 94.0612L307.477 93.6752C307.211 93.5424 306.972 93.3615 306.773 93.1417L301.205 87.0175L300.736 86.5483C300.285 86.0971 299.673 85.8436 299.035 85.8436H298.27H297.825C297.35 85.8436 296.885 85.703 296.49 85.4395L295.335 84.6696L289.441 80.9186C289.073 80.6845 288.776 80.3548 288.581 79.9647L288.546 79.8949C288.379 79.5608 288.292 79.1924 288.292 78.8189V76.623C288.292 76.5091 288.284 76.3954 288.268 76.2827L287.76 72.7297C287.723 72.4737 287.646 72.2252 287.53 71.9939L287.118 71.1692L282.422 64.1255L280.074 61.1906C279.698 60.8148 279.189 60.6037 278.657 60.6037H277.31C277.196 60.6037 277.083 60.5956 276.97 60.5795L274.139 60.1751C273.445 60.0759 272.843 59.6424 272.53 59.0151C272.472 58.9004 272.405 58.7911 272.328 58.6886L268.922 54.1469L265.987 50.0381L259.273 41.6462C259.056 41.3743 258.782 41.1529 258.47 40.9972L256.139 39.8312C255.673 39.5984 255.295 39.2209 255.062 38.7552L254.941 38.5117C254.87 38.37 254.785 38.2356 254.688 38.1106L250.725 33.0159L250.138 32.4289L243.753 26.0434C243.705 25.996 243.655 25.952 243.601 25.9117C242.667 25.2111 241.334 25.8777 241.334 27.0454V34.1378C241.334 34.5565 241.443 34.968 241.651 35.3315L243.682 38.8856L244.303 39.8173C244.657 40.3482 244.785 40.9981 244.66 41.6238L244.269 43.5814L243.141 49.2175C243.11 49.3729 243.095 49.531 243.095 49.6894V50.1405C243.095 50.8226 243.384 51.4726 243.891 51.9289L248.835 56.3781C248.921 56.4558 249.013 56.5272 249.11 56.5917L249.654 56.9545C250.323 57.4008 250.725 58.152 250.725 58.9565V59.0927C250.725 59.3163 250.694 59.5388 250.633 59.7537L249.655 63.1774C249.586 63.4167 249.481 63.644 249.343 63.851L248.782 64.6933C248.518 65.0886 248.377 65.5529 248.377 66.028V68.2343V69.807C248.377 70.6521 247.934 71.4353 247.209 71.8701L242.508 74.6911L240.057 76.3247C239.388 76.7709 238.986 77.5222 238.986 78.3266V84.8416C238.986 85.0708 238.8 85.2566 238.571 85.2566C238.461 85.2566 238.355 85.3003 238.277 85.3782L230.937 92.7188C230.825 92.8309 230.702 92.9315 230.57 93.0194L229.007 94.0612L228.315 94.4072C227.998 94.5657 227.649 94.6482 227.294 94.6482C226.531 94.6482 225.818 95.0297 225.395 95.6649L222.551 99.931C222.011 100.65 222.721 101.635 223.574 101.351L224.312 101.105L226.816 100.103C227.1 99.9894 227.404 99.931 227.71 99.931H228.711C228.908 99.931 229.104 99.9069 229.295 99.8591L230.951 99.4451C231.218 99.3782 231.473 99.2658 231.702 99.1128L234.679 97.1283C234.811 97.0404 234.933 96.9397 235.046 96.8276L235.346 96.5269C235.798 96.0756 236.41 95.8222 237.048 95.8222H239.256C239.839 95.8222 240.402 95.6106 240.84 95.2269L244.423 92.0922C244.666 91.879 245.034 91.8912 245.262 92.1202C245.378 92.2355 245.534 92.3003 245.697 92.3003H246.693C247.03 92.3003 247.362 92.2297 247.67 92.0929L252.232 90.0653C252.4 89.9909 252.581 89.9524 252.764 89.9524C252.967 89.9524 253.168 89.9051 253.35 89.8142L253.392 89.7931C253.914 89.532 254.54 89.5955 254.999 89.9562L261.671 95.1988C262.179 95.5975 262.505 96.1835 262.576 96.825L262.941 100.105C263.012 100.745 263.336 101.329 263.841 101.728L268.765 105.615C270.556 107.029 269.556 109.91 267.274 109.91Z" fill="#FFFCEC"/>
<path d="M221.04 49.0328C221.465 48.3259 222.551 48.6266 222.551 49.4508V52.8307C222.551 54.4252 221.917 55.9542 220.789 57.0817C219.662 58.2091 219.029 59.7383 219.029 61.3326V62.6373C219.029 63.966 218.501 65.2408 217.562 66.1803L217.339 66.402C216.542 67.1992 215.461 67.647 214.333 67.6471H213.859C213.397 67.6471 212.938 67.7352 212.509 67.9069L211.577 68.2799C210.76 68.6067 210.224 69.3982 210.224 70.278C210.224 70.8486 209.998 71.3959 209.594 71.7994L208.298 73.0953C207.264 74.1295 205.914 74.7899 204.463 74.9713L202.114 75.2643C202.042 75.2732 201.972 75.2894 201.904 75.3121C200.88 75.6532 200.035 74.4592 200.698 73.6071L202.444 71.3619C202.543 71.234 202.659 71.1187 202.786 71.0192L211.609 64.1578C212.632 63.3622 213.483 62.3678 214.113 61.235L219.029 52.3864L221.04 49.0328Z" fill="black"/>
<path d="M221.04 49.0328C221.465 48.3259 222.551 48.6266 222.551 49.4508V52.8307C222.551 54.4252 221.917 55.9542 220.789 57.0817C219.662 58.2091 219.029 59.7383 219.029 61.3326V62.6373C219.029 63.966 218.501 65.2408 217.562 66.1803L217.339 66.402C216.542 67.1992 215.461 67.647 214.333 67.6471H213.859C213.397 67.6471 212.938 67.7352 212.509 67.9069L211.577 68.2799C210.76 68.6067 210.224 69.3982 210.224 70.278C210.224 70.8486 209.998 71.3959 209.594 71.7994L208.298 73.0953C207.264 74.1295 205.914 74.7899 204.463 74.9713L202.114 75.2643C202.042 75.2732 201.972 75.2894 201.904 75.3121C200.88 75.6532 200.035 74.4592 200.698 73.6071L202.444 71.3619C202.543 71.234 202.659 71.1187 202.786 71.0192L211.609 64.1578C212.632 63.3622 213.483 62.3678 214.113 61.235L219.029 52.3864L221.04 49.0328Z" stroke="black"/>
</svg>
